<svg width="28" height="28" viewBox="0 0 28 28" fill="none" xmlns="http://www.w3.org/2000/svg">
<rect width="28" height="28" fill="#079561"/>
<path d="M20.6371 13.6523C20.6371 12.6453 20.062 11.7804 19.2285 11.3426C19.5079 10.4428 19.3042 9.42532 18.5917 8.71286C17.8793 8.00158 16.8618 7.79669 15.9619 8.07608C15.5242 7.24256 14.6593 6.66748 13.6523 6.66748C12.6453 6.66748 11.7804 7.24256 11.3426 8.07608C10.4428 7.79669 9.42532 8.00158 8.71286 8.71286C8.00158 9.42532 7.79669 10.4428 8.07608 11.3426C7.24256 11.7804 6.66748 12.6453 6.66748 13.6523C6.66748 14.6593 7.24256 15.5242 8.07608 15.9619C7.79669 16.8618 8.00041 17.8793 8.71286 18.5917C9.42532 19.3042 10.4428 19.509 11.3426 19.2285C11.7804 20.062 12.6453 20.6371 13.6523 20.6371C14.6593 20.6371 15.5242 20.062 15.9619 19.2285C16.8618 19.5079 17.8793 19.3042 18.5917 18.5917C19.3042 17.8793 19.509 16.8618 19.2285 15.9619C20.062 15.5242 20.6371 14.6593 20.6371 13.6523Z" fill="white" stroke="white"/>
<path d="M17.1445 11.324L12.4879 15.9805L10.1597 13.6522" stroke="#079561"/>
</svg>
