<svg width="28" height="28" viewBox="0 0 28 28" fill="none" xmlns="http://www.w3.org/2000/svg">
<rect width="28" height="28" fill="#079561"/>
<path d="M15.7039 18.9548H14.7478C14.6971 18.9548 14.6485 18.9346 14.6126 18.8988C14.5768 18.8629 14.5566 18.8143 14.5566 18.7636V18.3804C14.5566 18.3297 14.5768 18.281 14.6126 18.2452C14.6485 18.2093 14.6971 18.1892 14.7478 18.1892H19.528C19.9337 18.1892 20.3228 18.028 20.6097 17.7411C20.8965 17.4543 21.0577 17.0652 21.0577 16.6595V8.62952C21.0577 8.22383 20.8965 7.83475 20.6097 7.54788C20.3228 7.26101 19.9337 7.09985 19.528 7.09985H8.05555C7.64985 7.09985 7.26078 7.26101 6.97391 7.54788C6.68704 7.83475 6.52588 8.22383 6.52588 8.62952V16.6603C6.52588 17.066 6.68704 17.455 6.97391 17.7419C7.26078 18.0288 7.64985 18.1899 8.05555 18.1899H12.8358C12.8863 18.1899 12.9349 18.21 12.9707 18.2457C13.0065 18.2814 13.0268 18.3298 13.027 18.3804V18.7628C13.027 18.8135 13.0068 18.8621 12.971 18.898C12.9351 18.9339 12.8865 18.954 12.8358 18.954H11.8797C11.6769 18.954 11.4823 19.0346 11.3389 19.178C11.1955 19.3215 11.1149 19.516 11.1149 19.7188C11.1149 19.9217 11.1955 20.1162 11.3389 20.2597C11.4823 20.4031 11.6769 20.4837 11.8797 20.4837H15.7039C15.9067 20.4837 16.1013 20.4031 16.2447 20.2597C16.3881 20.1162 16.4687 19.9217 16.4687 19.7188C16.4687 19.516 16.3881 19.3215 16.2447 19.178C16.1013 19.0346 15.9067 18.9548 15.7039 18.9548ZM8.05555 16.2779V9.01194C8.05555 8.91051 8.09584 8.81324 8.16755 8.74153C8.23927 8.66981 8.33654 8.62952 8.43796 8.62952H19.1456C19.2471 8.62952 19.3443 8.66981 19.416 8.74153C19.4878 8.81324 19.528 8.91051 19.528 9.01194V16.2779C19.528 16.3793 19.4878 16.4765 19.416 16.5483C19.3443 16.62 19.2471 16.6603 19.1456 16.6603H8.43796C8.33654 16.6603 8.23927 16.62 8.16755 16.5483C8.09584 16.4765 8.05555 16.3793 8.05555 16.2779Z" fill="white"/>
</svg>
